<?xml version="1.0" standalone="no"?>
<!DOCTYPE svg PUBLIC "-//W3C//DTD SVG 1.1//EN" "http://www.w3.org/Graphics/SVG/1.1/DTD/svg11.dtd">
<svg width="800" height="600" version="1.1" xmlns="http://www.w3.org/2000/svg">
<rect width="800" height="600" x="0" y="0" style="fill:rgb(238,238,238);stroke:none"/>
<rect width="800" height="600" x="0" y="0" style="fill:rgb(255,255,255);stroke:none"/>
<text x="2" y="566" fill="rgb(0,0,0)" font-family="Arial" font-size="12">0</text>
<text x="2" y="476" fill="rgb(0,0,0)" font-family="Arial" font-size="12">1.0E7</text>
<text x="2" y="385" fill="rgb(0,0,0)" font-family="Arial" font-size="12">2.0E7</text>
<text x="2" y="294" fill="rgb(0,0,0)" font-family="Arial" font-size="12">3.0E7</text>
<text x="2" y="203" fill="rgb(0,0,0)" font-family="Arial" font-size="12">4.0E7</text>
<text x="2" y="113" fill="rgb(0,0,0)" font-family="Arial" font-size="12">5.0E7</text>
<text x="276" y="30" fill="rgb(0,0,0)" font-family="Arial" font-size="12">Quality score distribution over all sequences</text>
<line x1="41" y1="560" x2="790" y2="560" stroke="rgb(0,0,0)" stroke-width="1"/>
<line x1="41" y1="560" x2="41" y2="40" stroke="rgb(0,0,0)" stroke-width="1"/>
<text x="281" y="595" fill="rgb(0,0,0)" font-family="Arial" font-size="12">Mean Sequence Quality (Phred Score)</text>
<text x="45" y="575" fill="rgb(0,0,0)" font-family="Arial" font-size="12">12</text>
<rect width="25" height="520" x="66" y="40" style="fill:rgb(230,230,230);stroke:none"/>
<text x="70" y="575" fill="rgb(0,0,0)" font-family="Arial" font-size="12">13</text>
<text x="95" y="575" fill="rgb(0,0,0)" font-family="Arial" font-size="12">14</text>
<rect width="25" height="520" x="116" y="40" style="fill:rgb(230,230,230);stroke:none"/>
<text x="120" y="575" fill="rgb(0,0,0)" font-family="Arial" font-size="12">15</text>
<text x="145" y="575" fill="rgb(0,0,0)" font-family="Arial" font-size="12">16</text>
<rect width="25" height="520" x="166" y="40" style="fill:rgb(230,230,230);stroke:none"/>
<text x="170" y="575" fill="rgb(0,0,0)" font-family="Arial" font-size="12">17</text>
<text x="195" y="575" fill="rgb(0,0,0)" font-family="Arial" font-size="12">18</text>
<rect width="25" height="520" x="216" y="40" style="fill:rgb(230,230,230);stroke:none"/>
<text x="220" y="575" fill="rgb(0,0,0)" font-family="Arial" font-size="12">19</text>
<text x="245" y="575" fill="rgb(0,0,0)" font-family="Arial" font-size="12">20</text>
<rect width="25" height="520" x="266" y="40" style="fill:rgb(230,230,230);stroke:none"/>
<text x="270" y="575" fill="rgb(0,0,0)" font-family="Arial" font-size="12">21</text>
<text x="295" y="575" fill="rgb(0,0,0)" font-family="Arial" font-size="12">22</text>
<rect width="25" height="520" x="316" y="40" style="fill:rgb(230,230,230);stroke:none"/>
<text x="320" y="575" fill="rgb(0,0,0)" font-family="Arial" font-size="12">23</text>
<text x="345" y="575" fill="rgb(0,0,0)" font-family="Arial" font-size="12">24</text>
<rect width="25" height="520" x="366" y="40" style="fill:rgb(230,230,230);stroke:none"/>
<text x="370" y="575" fill="rgb(0,0,0)" font-family="Arial" font-size="12">25</text>
<text x="395" y="575" fill="rgb(0,0,0)" font-family="Arial" font-size="12">26</text>
<rect width="25" height="520" x="416" y="40" style="fill:rgb(230,230,230);stroke:none"/>
<text x="420" y="575" fill="rgb(0,0,0)" font-family="Arial" font-size="12">27</text>
<text x="445" y="575" fill="rgb(0,0,0)" font-family="Arial" font-size="12">28</text>
<rect width="25" height="520" x="466" y="40" style="fill:rgb(230,230,230);stroke:none"/>
<text x="470" y="575" fill="rgb(0,0,0)" font-family="Arial" font-size="12">29</text>
<text x="495" y="575" fill="rgb(0,0,0)" font-family="Arial" font-size="12">30</text>
<rect width="25" height="520" x="516" y="40" style="fill:rgb(230,230,230);stroke:none"/>
<text x="520" y="575" fill="rgb(0,0,0)" font-family="Arial" font-size="12">31</text>
<text x="545" y="575" fill="rgb(0,0,0)" font-family="Arial" font-size="12">32</text>
<rect width="25" height="520" x="566" y="40" style="fill:rgb(230,230,230);stroke:none"/>
<text x="570" y="575" fill="rgb(0,0,0)" font-family="Arial" font-size="12">33</text>
<text x="595" y="575" fill="rgb(0,0,0)" font-family="Arial" font-size="12">34</text>
<rect width="25" height="520" x="616" y="40" style="fill:rgb(230,230,230);stroke:none"/>
<text x="620" y="575" fill="rgb(0,0,0)" font-family="Arial" font-size="12">35</text>
<text x="645" y="575" fill="rgb(0,0,0)" font-family="Arial" font-size="12">36</text>
<rect width="25" height="520" x="666" y="40" style="fill:rgb(230,230,230);stroke:none"/>
<text x="670" y="575" fill="rgb(0,0,0)" font-family="Arial" font-size="12">37</text>
<text x="695" y="575" fill="rgb(0,0,0)" font-family="Arial" font-size="12">38</text>
<rect width="25" height="520" x="716" y="40" style="fill:rgb(230,230,230);stroke:none"/>
<text x="720" y="575" fill="rgb(0,0,0)" font-family="Arial" font-size="12">39</text>
<text x="745" y="575" fill="rgb(0,0,0)" font-family="Arial" font-size="12">40</text>
<line x1="41" y1="560" x2="790" y2="560" stroke="rgb(180,180,180)" stroke-width="1"/>
<line x1="41" y1="470" x2="790" y2="470" stroke="rgb(180,180,180)" stroke-width="1"/>
<line x1="41" y1="379" x2="790" y2="379" stroke="rgb(180,180,180)" stroke-width="1"/>
<line x1="41" y1="288" x2="790" y2="288" stroke="rgb(180,180,180)" stroke-width="1"/>
<line x1="41" y1="197" x2="790" y2="197" stroke="rgb(180,180,180)" stroke-width="1"/>
<line x1="41" y1="107" x2="790" y2="107" stroke="rgb(180,180,180)" stroke-width="1"/>
<line x1="53" y1="560" x2="78" y2="560" stroke="rgb(136,34,85)" stroke-width="1"/>
<line x1="78" y1="560" x2="103" y2="560" stroke="rgb(136,34,85)" stroke-width="1"/>
<line x1="103" y1="560" x2="128" y2="560" stroke="rgb(136,34,85)" stroke-width="1"/>
<line x1="128" y1="560" x2="153" y2="560" stroke="rgb(136,34,85)" stroke-width="1"/>
<line x1="153" y1="560" x2="178" y2="560" stroke="rgb(136,34,85)" stroke-width="1"/>
<line x1="178" y1="560" x2="203" y2="560" stroke="rgb(136,34,85)" stroke-width="1"/>
<line x1="203" y1="560" x2="228" y2="560" stroke="rgb(136,34,85)" stroke-width="1"/>
<line x1="228" y1="560" x2="253" y2="560" stroke="rgb(136,34,85)" stroke-width="1"/>
<line x1="253" y1="560" x2="278" y2="560" stroke="rgb(136,34,85)" stroke-width="1"/>
<line x1="278" y1="560" x2="303" y2="560" stroke="rgb(136,34,85)" stroke-width="1"/>
<line x1="303" y1="560" x2="328" y2="560" stroke="rgb(136,34,85)" stroke-width="1"/>
<line x1="328" y1="560" x2="353" y2="560" stroke="rgb(136,34,85)" stroke-width="1"/>
<line x1="353" y1="560" x2="378" y2="559" stroke="rgb(136,34,85)" stroke-width="1"/>
<line x1="378" y1="559" x2="403" y2="559" stroke="rgb(136,34,85)" stroke-width="1"/>
<line x1="403" y1="559" x2="428" y2="558" stroke="rgb(136,34,85)" stroke-width="1"/>
<line x1="428" y1="558" x2="453" y2="558" stroke="rgb(136,34,85)" stroke-width="1"/>
<line x1="453" y1="558" x2="478" y2="557" stroke="rgb(136,34,85)" stroke-width="1"/>
<line x1="478" y1="557" x2="503" y2="556" stroke="rgb(136,34,85)" stroke-width="1"/>
<line x1="503" y1="556" x2="528" y2="554" stroke="rgb(136,34,85)" stroke-width="1"/>
<line x1="528" y1="554" x2="553" y2="553" stroke="rgb(136,34,85)" stroke-width="1"/>
<line x1="553" y1="553" x2="578" y2="551" stroke="rgb(136,34,85)" stroke-width="1"/>
<line x1="578" y1="551" x2="603" y2="549" stroke="rgb(136,34,85)" stroke-width="1"/>
<line x1="603" y1="549" x2="628" y2="546" stroke="rgb(136,34,85)" stroke-width="1"/>
<line x1="628" y1="546" x2="653" y2="542" stroke="rgb(136,34,85)" stroke-width="1"/>
<line x1="653" y1="542" x2="678" y2="536" stroke="rgb(136,34,85)" stroke-width="1"/>
<line x1="678" y1="536" x2="703" y2="524" stroke="rgb(136,34,85)" stroke-width="1"/>
<line x1="703" y1="524" x2="728" y2="486" stroke="rgb(136,34,85)" stroke-width="1"/>
<line x1="728" y1="486" x2="753" y2="40" stroke="rgb(136,34,85)" stroke-width="1"/>
<rect width="183" height="23" x="607" y="40" style="fill:rgb(255,255,255);stroke:none"/>
<rect width="183" height="23" x="607" y="40" rx="0" ry="0" style="fill:none;stroke-width:1;stroke:rgb(192,192,192)"/>
<text x="610" y="55" fill="rgb(136,34,85)" font-family="Arial" font-size="12" font-weight="bold">Average Quality per read</text>
</svg>
