<?xml version="1.0" standalone="no"?>
<!DOCTYPE svg PUBLIC "-//W3C//DTD SVG 1.1//EN" "http://www.w3.org/Graphics/SVG/1.1/DTD/svg11.dtd">
<svg width="800" height="600" version="1.1" xmlns="http://www.w3.org/2000/svg">
<rect width="800" height="600" x="0" y="0" style="fill:rgb(238,238,238);stroke:none"/>
<rect width="800" height="600" x="0" y="0" style="fill:rgb(255,255,255);stroke:none"/>
<text x="2" y="566" fill="rgb(0,0,0)" font-family="Arial" font-size="12">0</text>
<text x="2" y="503" fill="rgb(0,0,0)" font-family="Arial" font-size="12">1.0E7</text>
<text x="2" y="439" fill="rgb(0,0,0)" font-family="Arial" font-size="12">2.0E7</text>
<text x="2" y="375" fill="rgb(0,0,0)" font-family="Arial" font-size="12">3.0E7</text>
<text x="2" y="311" fill="rgb(0,0,0)" font-family="Arial" font-size="12">4.0E7</text>
<text x="2" y="247" fill="rgb(0,0,0)" font-family="Arial" font-size="12">5.0E7</text>
<text x="2" y="184" fill="rgb(0,0,0)" font-family="Arial" font-size="12">6.0E7</text>
<text x="2" y="120" fill="rgb(0,0,0)" font-family="Arial" font-size="12">7.0E7</text>
<text x="2" y="56" fill="rgb(0,0,0)" font-family="Arial" font-size="12">8.0E7</text>
<text x="252" y="30" fill="rgb(0,0,0)" font-family="Arial" font-size="12">Distribution of sequence lengths over all sequences</text>
<line x1="41" y1="560" x2="790" y2="560" stroke="rgb(0,0,0)" stroke-width="1"/>
<line x1="41" y1="560" x2="41" y2="40" stroke="rgb(0,0,0)" stroke-width="1"/>
<text x="330" y="595" fill="rgb(0,0,0)" font-family="Arial" font-size="12">Sequence Length (bp)</text>
<text x="153" y="575" fill="rgb(0,0,0)" font-family="Arial" font-size="12">100</text>
<rect width="249" height="520" x="290" y="40" style="fill:rgb(230,230,230);stroke:none"/>
<text x="402" y="575" fill="rgb(0,0,0)" font-family="Arial" font-size="12">101</text>
<text x="651" y="575" fill="rgb(0,0,0)" font-family="Arial" font-size="12">102</text>
<line x1="41" y1="560" x2="790" y2="560" stroke="rgb(180,180,180)" stroke-width="1"/>
<line x1="41" y1="497" x2="790" y2="497" stroke="rgb(180,180,180)" stroke-width="1"/>
<line x1="41" y1="433" x2="790" y2="433" stroke="rgb(180,180,180)" stroke-width="1"/>
<line x1="41" y1="369" x2="790" y2="369" stroke="rgb(180,180,180)" stroke-width="1"/>
<line x1="41" y1="305" x2="790" y2="305" stroke="rgb(180,180,180)" stroke-width="1"/>
<line x1="41" y1="241" x2="790" y2="241" stroke="rgb(180,180,180)" stroke-width="1"/>
<line x1="41" y1="178" x2="790" y2="178" stroke="rgb(180,180,180)" stroke-width="1"/>
<line x1="41" y1="114" x2="790" y2="114" stroke="rgb(180,180,180)" stroke-width="1"/>
<line x1="41" y1="50" x2="790" y2="50" stroke="rgb(180,180,180)" stroke-width="1"/>
<line x1="165" y1="560" x2="414" y2="40" stroke="rgb(136,34,85)" stroke-width="1"/>
<line x1="414" y1="40" x2="663" y2="560" stroke="rgb(136,34,85)" stroke-width="1"/>
<rect width="130" height="23" x="660" y="40" style="fill:rgb(255,255,255);stroke:none"/>
<rect width="130" height="23" x="660" y="40" rx="0" ry="0" style="fill:none;stroke-width:1;stroke:rgb(192,192,192)"/>
<text x="663" y="55" fill="rgb(136,34,85)" font-family="Arial" font-size="12" font-weight="bold">Sequence Length</text>
</svg>
